<?xml version="1.0" standalone="no"?>
<!DOCTYPE svg PUBLIC "-//W3C//DTD SVG 20010904//EN"
 "http://www.w3.org/TR/2001/REC-SVG-20010904/DTD/svg10.dtd">
<svg version="1.0" xmlns="http://www.w3.org/2000/svg"
 width="192.000000pt" height="182.000000pt" viewBox="0 0 192.000000 182.000000"
 preserveAspectRatio="xMidYMid meet">
<metadata>
Created by potrace 1.15, written by Peter Selinger 2001-2017
</metadata>
<g transform="translate(0.000000,182.000000) scale(0.100000,-0.100000)"
fill="#000000" stroke="none">
<path d="M20 900 l0 -900 950 0 950 0 0 900 0 900 -950 0 -950 0 0 -900z
m1780 0 l0 -780 -830 0 -830 0 0 780 0 780 830 0 830 0 0 -780z"/>
<path d="M250 900 l0 -670 720 0 720 0 0 110 0 110 -598 0 c-452 0 -601 3
-610 12 -9 9 -12 147 -12 560 l0 548 -110 0 -110 0 0 -670z"/>
<path d="M590 1070 l0 -500 550 0 550 0 0 110 0 110 -438 0 c-327 0 -441 3
-450 12 -17 17 -17 519 0 536 9 9 123 12 450 12 l438 0 0 110 0 110 -550 0
-550 0 0 -500z"/>
</g>
</svg>
